<svg width="144" height="20" viewBox="0 0 144 20" fill="none" xmlns="http://www.w3.org/2000/svg">
<path d="M136.577 19.26C135.468 19.26 134.471 19.078 133.587 18.714C132.703 18.3326 131.949 17.8126 131.325 17.154C130.718 16.4953 130.25 15.7413 129.921 14.892C129.592 14.0426 129.427 13.15 129.427 12.214C129.427 11.2606 129.592 10.3593 129.921 9.50997C130.25 8.66064 130.718 7.90664 131.325 7.24797C131.949 6.5893 132.703 6.07797 133.587 5.71397C134.471 5.33263 135.468 5.14197 136.577 5.14197C137.686 5.14197 138.674 5.33263 139.541 5.71397C140.425 6.07797 141.179 6.5893 141.803 7.24797C142.427 7.90664 142.895 8.66064 143.207 9.50997C143.536 10.3593 143.701 11.2606 143.701 12.214C143.701 13.15 143.536 14.0426 143.207 14.892C142.895 15.7413 142.427 16.4953 141.803 17.154C141.196 17.8126 140.451 18.3326 139.567 18.714C138.683 19.078 137.686 19.26 136.577 19.26ZM133.015 12.214C133.015 13.0113 133.171 13.722 133.483 14.346C133.795 14.9526 134.22 15.4293 134.757 15.776C135.294 16.1226 135.901 16.296 136.577 16.296C137.236 16.296 137.834 16.1226 138.371 15.776C138.908 15.412 139.333 14.9266 139.645 14.32C139.974 13.696 140.139 12.9853 140.139 12.188C140.139 11.408 139.974 10.706 139.645 10.082C139.333 9.45797 138.908 8.97264 138.371 8.62597C137.834 8.2793 137.236 8.10597 136.577 8.10597C135.901 8.10597 135.294 8.28797 134.757 8.65197C134.22 8.99864 133.795 9.48397 133.483 10.108C133.171 10.7146 133.015 11.4166 133.015 12.214Z" fill="black"/>
<path d="M122.878 19V5.37602H126.362V19H122.878ZM122.878 3.47802V0.0200195H126.362V3.47802H122.878Z" fill="black"/>
<path d="M104.508 12.188C104.508 10.8707 104.768 9.68335 105.288 8.62602C105.808 7.55135 106.528 6.70202 107.446 6.07802C108.365 5.45402 109.414 5.14202 110.592 5.14202C111.598 5.14202 112.499 5.39335 113.296 5.89602C114.111 6.38135 114.744 7.00535 115.194 7.76802V0.0200195H118.678V15.1C118.678 15.464 118.739 15.724 118.86 15.88C118.982 16.036 119.19 16.1314 119.484 16.166V19C118.878 19.1214 118.384 19.182 118.002 19.182C117.378 19.182 116.858 19.026 116.442 18.714C116.044 18.402 115.818 17.9947 115.766 17.492L115.714 16.634C115.212 17.4834 114.527 18.1334 113.66 18.584C112.811 19.0347 111.918 19.26 110.982 19.26C110.046 19.26 109.18 19.078 108.382 18.714C107.602 18.35 106.918 17.8474 106.328 17.206C105.756 16.5647 105.306 15.8194 104.976 14.97C104.664 14.1034 104.508 13.176 104.508 12.188ZM115.194 14.008V10.758C115.021 10.2554 114.744 9.80469 114.362 9.40602C113.981 9.00735 113.556 8.69535 113.088 8.47002C112.62 8.22735 112.152 8.10602 111.684 8.10602C111.147 8.10602 110.662 8.21869 110.228 8.44402C109.795 8.66935 109.414 8.97269 109.084 9.35402C108.772 9.73535 108.53 10.1774 108.356 10.68C108.2 11.1827 108.122 11.7114 108.122 12.266C108.122 12.8207 108.209 13.3494 108.382 13.852C108.573 14.3374 108.842 14.762 109.188 15.126C109.535 15.49 109.934 15.776 110.384 15.984C110.852 16.192 111.355 16.296 111.892 16.296C112.222 16.296 112.551 16.244 112.88 16.14C113.227 16.0187 113.548 15.8627 113.842 15.672C114.154 15.464 114.423 15.2214 114.648 14.944C114.891 14.6494 115.073 14.3374 115.194 14.008Z" fill="black"/>
<path d="M88.358 13.904V5.37598H91.842V13.15C91.842 14.19 92.0326 14.9786 92.414 15.516C92.7953 16.036 93.3586 16.296 94.104 16.296C94.5546 16.296 94.9966 16.2093 95.43 16.036C95.8806 15.8453 96.288 15.568 96.652 15.204C97.0333 14.84 97.354 14.3806 97.614 13.826V5.37598H101.098V15.1C101.098 15.464 101.159 15.724 101.28 15.88C101.419 16.036 101.635 16.1313 101.93 16.166V19C101.583 19.052 101.289 19.0866 101.046 19.104C100.821 19.1386 100.613 19.156 100.422 19.156C99.798 19.156 99.2866 19.0173 98.888 18.74C98.5066 18.4453 98.2813 18.0466 98.212 17.544L98.134 16.452C97.5273 17.3706 96.7473 18.0726 95.794 18.558C94.8406 19.026 93.792 19.26 92.648 19.26C91.244 19.26 90.178 18.8093 89.45 17.908C88.722 16.9893 88.358 15.6546 88.358 13.904Z" fill="black"/>
<path d="M85.8935 18.2981C85.5988 18.4194 85.2435 18.5581 84.8275 18.7141C84.4115 18.8701 83.9608 18.9914 83.4755 19.0781C83.0075 19.1821 82.5308 19.2341 82.0455 19.2341C81.4041 19.2341 80.8148 19.1214 80.2775 18.8961C79.7401 18.6707 79.3068 18.3154 78.9775 17.8301C78.6655 17.3274 78.5095 16.6774 78.5095 15.8801V8.05405H76.7155V5.37605H78.5095V0.956055H81.9935V5.37605H84.8535V8.05405H81.9935V14.7101C82.0108 15.1781 82.1408 15.5161 82.3835 15.7241C82.6261 15.9321 82.9295 16.0361 83.2935 16.0361C83.6575 16.0361 84.0128 15.9754 84.3595 15.8541C84.7061 15.7327 84.9835 15.6287 85.1915 15.5421L85.8935 18.2981Z" fill="black"/>
<path d="M72.6448 5.37603C72.5235 5.2547 72.2981 5.09003 71.9688 4.88203C71.6568 4.67404 71.2668 4.4747 70.7988 4.28403C70.3481 4.09337 69.8541 3.9287 69.3168 3.79003C68.7795 3.63403 68.2335 3.55603 67.6788 3.55603C66.7081 3.55603 65.9715 3.73803 65.4688 4.10203C64.9835 4.46603 64.7408 4.97737 64.7408 5.63603C64.7408 6.1387 64.8968 6.53737 65.2088 6.83204C65.5208 7.1267 65.9888 7.37803 66.6128 7.58603C67.2368 7.79403 68.0168 8.01937 68.9528 8.26203C70.1661 8.5567 71.2148 8.9207 72.0988 9.35403C73.0001 9.77003 73.6848 10.3247 74.1528 11.018C74.6381 11.694 74.8808 12.5954 74.8808 13.722C74.8808 14.71 74.6988 15.5594 74.3348 16.27C73.9708 16.9634 73.4681 17.5267 72.8268 17.96C72.1855 18.3934 71.4575 18.714 70.6428 18.922C69.8281 19.1127 68.9615 19.208 68.0428 19.208C67.1241 19.208 66.2055 19.1127 65.2868 18.922C64.3681 18.7314 63.4841 18.4627 62.6348 18.116C61.7855 17.752 61.0055 17.3187 60.2948 16.816L61.8808 13.722C62.0368 13.878 62.3141 14.086 62.7128 14.346C63.1115 14.5887 63.5968 14.84 64.1688 15.1C64.7408 15.3427 65.3648 15.5507 66.0408 15.724C66.7168 15.8974 67.4015 15.984 68.0948 15.984C69.0655 15.984 69.8021 15.8194 70.3048 15.49C70.8075 15.1607 71.0588 14.6927 71.0588 14.086C71.0588 13.5314 70.8595 13.098 70.4608 12.786C70.0621 12.474 69.5075 12.2054 68.7968 11.98C68.0861 11.7374 67.2455 11.4774 66.2748 11.2C65.1135 10.8707 64.1428 10.5067 63.3628 10.108C62.5828 9.69203 62.0021 9.17203 61.6208 8.54803C61.2395 7.92403 61.0488 7.14403 61.0488 6.20803C61.0488 4.9427 61.3435 3.88537 61.9328 3.03603C62.5395 2.16937 63.3541 1.51937 64.3768 1.08603C65.3995 0.635368 66.5348 0.410034 67.7828 0.410034C68.6495 0.410034 69.4641 0.505368 70.2268 0.696034C71.0068 0.886701 71.7348 1.13803 72.4108 1.45004C73.0868 1.76204 73.6935 2.10003 74.2308 2.46403L72.6448 5.37603Z" fill="black"/>
<path d="M52.0014 19.26C50.9614 19.26 50.0341 19.026 49.2194 18.558C48.4048 18.09 47.7634 17.4487 47.2954 16.634V19H44.2534V0.0200195H47.7374V7.76802C48.2228 6.95335 48.8554 6.31202 49.6354 5.84402C50.4328 5.37602 51.3601 5.14202 52.4174 5.14202C53.3014 5.14202 54.1074 5.33269 54.8354 5.71402C55.5634 6.07802 56.1874 6.58935 56.7074 7.24802C57.2448 7.90669 57.6521 8.66069 57.9294 9.51002C58.2241 10.3594 58.3714 11.2694 58.3714 12.24C58.3714 13.2107 58.2068 14.1207 57.8774 14.97C57.5654 15.8194 57.1234 16.5734 56.5514 17.232C55.9794 17.8734 55.3034 18.376 54.5234 18.74C53.7608 19.0867 52.9201 19.26 52.0014 19.26ZM51.0394 16.296C51.5941 16.296 52.0968 16.192 52.5474 15.984C53.0154 15.7587 53.4141 15.464 53.7434 15.1C54.0901 14.736 54.3501 14.3114 54.5234 13.826C54.7141 13.3234 54.8094 12.8034 54.8094 12.266C54.8094 11.5207 54.6534 10.836 54.3414 10.212C54.0468 9.57069 53.6308 9.05935 53.0934 8.67802C52.5734 8.29669 51.9581 8.10602 51.2474 8.10602C50.7448 8.10602 50.2594 8.22735 49.7914 8.47002C49.3408 8.69535 48.9334 9.00735 48.5694 9.40602C48.2228 9.80469 47.9454 10.2554 47.7374 10.758V14.008C47.8414 14.3547 48.0061 14.6667 48.2314 14.944C48.4741 15.2214 48.7514 15.464 49.0634 15.672C49.3754 15.8627 49.6961 16.0187 50.0254 16.14C50.3721 16.244 50.7101 16.296 51.0394 16.296Z" fill="#2196F3"/>
<path d="M34.227 19.26C33.135 19.26 32.147 19.078 31.263 18.714C30.379 18.3326 29.625 17.8213 29.001 17.18C28.377 16.5213 27.8916 15.776 27.545 14.944C27.2156 14.0946 27.051 13.202 27.051 12.266C27.051 10.966 27.337 9.77864 27.909 8.70397C28.4983 7.6293 29.3303 6.7713 30.405 6.12997C31.497 5.4713 32.7796 5.14197 34.253 5.14197C35.7436 5.14197 37.0176 5.4713 38.075 6.12997C39.1323 6.7713 39.9383 7.6293 40.493 8.70397C41.065 9.7613 41.351 10.9053 41.351 12.136C41.351 12.344 41.3423 12.5606 41.325 12.786C41.3076 12.994 41.2903 13.1673 41.273 13.306H30.743C30.8123 13.9993 31.0116 14.606 31.341 15.126C31.6876 15.646 32.121 16.0446 32.641 16.322C33.1783 16.582 33.7503 16.712 34.357 16.712C35.0503 16.712 35.7003 16.5473 36.307 16.218C36.931 15.8713 37.3556 15.4206 37.581 14.866L40.571 15.698C40.2416 16.3913 39.765 17.0066 39.141 17.544C38.5343 18.0813 37.815 18.506 36.983 18.818C36.151 19.1126 35.2323 19.26 34.227 19.26ZM30.665 11.096H37.789C37.7196 10.4026 37.5203 9.80464 37.191 9.30197C36.879 8.78197 36.463 8.3833 35.943 8.10597C35.423 7.8113 34.8423 7.66397 34.201 7.66397C33.577 7.66397 33.005 7.8113 32.485 8.10597C31.9823 8.3833 31.5663 8.78197 31.237 9.30197C30.925 9.80464 30.7343 10.4026 30.665 11.096Z" fill="#2196F3"/>
<path d="M8.242 0.59204H11.57L13.676 6.70204L15.808 0.59204H19.11L15.938 8.99004L18.278 14.866L23.504 0.540039H27.404L20.02 19H16.926L13.676 11.252L10.452 19H7.358L0 0.540039H3.848L9.1 14.866L11.388 8.99004L8.242 0.59204Z" fill="#2196F3"/>
</svg>
