<svg aria-hidden="true" style="position: absolute; width: 0; height: 0; overflow: hidden;" version="1.1" xmlns="http://www.w3.org/2000/svg" xmlns:xlink="http://www.w3.org/1999/xlink">
<defs>
<symbol id="icon-closebtn" viewBox="0 0 32 32">
<path d="M15.891 5.422h0.234l0.656 0.031 0.641 0.063 0.578 0.094 0.625 0.141 0.547 0.156 0.422 0.141 0.516 0.203 0.547 0.25 0.453 0.234 0.422 0.25 0.344 0.219 0.438 0.313 0.219 0.172 0.25 0.203 0.219 0.188 0.203 0.188 0.156 0.141 0.297 0.297v0.031h0.031l0.109 0.125 0.172 0.188 0.141 0.172 0.172 0.203 0.234 0.313 0.203 0.281 0.234 0.359 0.188 0.313 0.219 0.391 0.234 0.469 0.203 0.469 0.172 0.453 0.172 0.531 0.156 0.594 0.094 0.453 0.094 0.594 0.063 0.625 0.016 0.281v0.906l-0.031 0.484-0.063 0.547-0.109 0.641-0.125 0.531-0.125 0.453-0.203 0.594-0.203 0.5-0.203 0.453-0.156 0.297-0.234 0.422-0.188 0.297-0.188 0.281-0.203 0.297-0.172 0.219-0.203 0.25-0.141 0.172-0.156 0.172-0.219 0.25-0.25 0.25-0.125 0.109-0.156 0.156-0.125 0.109-0.219 0.188-0.234 0.188-0.203 0.156-0.281 0.203-0.188 0.125-0.266 0.172-0.313 0.188-0.281 0.156-0.422 0.219-0.484 0.219-0.484 0.188-0.563 0.188-0.594 0.156-0.438 0.094-0.563 0.094-0.578 0.063-0.516 0.031h-0.75l-0.531-0.031-0.641-0.078-0.547-0.094-0.609-0.141-0.484-0.141-0.5-0.172-0.531-0.219-0.438-0.203-0.234-0.125-0.219-0.109-0.375-0.219-0.391-0.25-0.266-0.188-0.25-0.188-0.219-0.172-0.203-0.172-0.219-0.188-0.203-0.188-0.172-0.172-0.094-0.078-0.109-0.125-0.188-0.188-0.109-0.125-0.188-0.219-0.219-0.266-0.188-0.25-0.203-0.281-0.234-0.359-0.188-0.313-0.188-0.328-0.297-0.594-0.188-0.438-0.156-0.422-0.172-0.516-0.125-0.453-0.125-0.578-0.094-0.594-0.063-0.609-0.016-0.234v-1.141l0.063-0.688 0.078-0.531 0.109-0.547 0.125-0.5 0.172-0.547 0.172-0.469 0.172-0.406 0.125-0.281 0.141-0.266 0.125-0.25 0.219-0.375 0.156-0.25 0.188-0.281 0.188-0.266 0.156-0.203 0.219-0.281 0.141-0.156 0.109-0.125 0.141-0.156 0.016-0.031h0.031l0.031-0.063 0.5-0.5 0.125-0.109 0.156-0.141 0.172-0.141 0.25-0.203 0.25-0.188 0.266-0.188 0.234-0.156 0.297-0.188 0.438-0.25 0.563-0.281 0.359-0.156 0.484-0.188 0.563-0.188 0.531-0.141 0.516-0.109 0.578-0.094 0.609-0.063zM15.578 6.406l-0.625 0.047-0.484 0.063-0.563 0.109-0.5 0.125-0.406 0.125-0.438 0.156-0.375 0.156-0.313 0.141-0.438 0.219-0.375 0.219-0.375 0.234-0.438 0.313-0.281 0.219-0.203 0.172-0.172 0.156-0.125 0.109-0.141 0.141-0.125 0.109-0.063 0.063v0.031h-0.031l-0.109 0.125-0.125 0.125-0.141 0.172-0.156 0.172-0.109 0.141-0.25 0.328-0.172 0.25-0.156 0.234-0.203 0.344-0.156 0.281-0.188 0.359-0.234 0.531-0.172 0.453-0.141 0.438-0.125 0.469-0.094 0.422-0.094 0.578-0.047 0.391-0.031 0.594v0.578l0.031 0.563 0.078 0.641 0.109 0.578 0.125 0.5 0.172 0.547 0.156 0.422 0.203 0.469 0.188 0.391 0.188 0.344 0.156 0.266 0.172 0.266 0.172 0.25 0.219 0.297 0.203 0.25 0.141 0.172 0.156 0.172 0.109 0.125 0.125 0.125 0.016 0.031h0.031v0.031h0.031l0.031 0.063h0.031v0.031l0.125 0.109 0.156 0.156 0.125 0.109 0.219 0.188 0.219 0.172 0.266 0.203 0.359 0.25 0.328 0.203 0.406 0.234 0.563 0.281 0.484 0.203 0.438 0.156 0.453 0.141 0.625 0.156 0.531 0.094 0.5 0.063 0.391 0.031 0.391 0.016h0.328l0.406-0.016 0.516-0.047 0.453-0.063 0.516-0.094 0.5-0.125 0.516-0.156 0.469-0.172 0.469-0.203 0.453-0.219 0.359-0.203 0.266-0.156 0.375-0.25 0.266-0.188 0.219-0.172 0.172-0.141 0.203-0.172 0.188-0.172 0.031-0.016v-0.031l0.063-0.031 0.438-0.438 0.109-0.125 0.172-0.188 0.313-0.391 0.219-0.297 0.219-0.328 0.203-0.328 0.203-0.359 0.266-0.531 0.203-0.484 0.188-0.531 0.141-0.469 0.109-0.453 0.078-0.406 0.063-0.422 0.047-0.453 0.016-0.219 0.016-0.625-0.016-0.484-0.047-0.531-0.078-0.563-0.109-0.531-0.094-0.375-0.156-0.516-0.156-0.422-0.156-0.375-0.188-0.406-0.188-0.359-0.219-0.375-0.25-0.391-0.172-0.234-0.188-0.25-0.172-0.219-0.141-0.156-0.109-0.125-0.141-0.156-0.172-0.188-0.25-0.25-0.125-0.109-0.172-0.156-0.172-0.141-0.25-0.203-0.25-0.188-0.297-0.203-0.266-0.172-0.234-0.141-0.25-0.141-0.359-0.188-0.328-0.156-0.5-0.203-0.344-0.125-0.578-0.172-0.531-0.125-0.641-0.109-0.625-0.063-0.313-0.016z"></path>
<path d="M11.422 11.031h0.188l0.156 0.063 0.156 0.125 3.984 3.984 0.063-0.031 4.047-4.047 0.156-0.078 0.063-0.016h0.172l0.141 0.047 0.141 0.109 0.094 0.156 0.031 0.109v0.125l-0.047 0.141-0.094 0.141-4.047 4.047 0.094 0.109 3.906 3.906 0.125 0.156 0.063 0.156v0.156l-0.063 0.156-0.094 0.125-0.078 0.063-0.141 0.063h-0.25l-0.156-0.078-4.078-4.078-0.047-0.016-4.078 4.078-0.188 0.094h-0.25l-0.156-0.078-0.078-0.078-0.063-0.078-0.063-0.156v-0.172l0.063-0.172 0.141-0.156 3.969-3.969-0.016-0.063-4.063-4.063-0.094-0.188v-0.188l0.063-0.172 0.141-0.156 0.125-0.063z"></path>
</symbol>
</defs>
</svg>
